<?xml version="1.0" encoding="UTF-8" standalone="no"?>
<!DOCTYPE svg PUBLIC "-//W3C//DTD SVG 1.1//EN" "http://www.w3.org/Graphics/SVG/1.1/DTD/svg11.dtd">
<svg width="100%" height="100%" viewBox="0 0 372 418" version="1.1" xmlns="http://www.w3.org/2000/svg" xmlns:xlink="http://www.w3.org/1999/xlink" xml:space="preserve" xmlns:serif="http://www.serif.com/" style="fill-rule:evenodd;clip-rule:evenodd;stroke-linecap:round;stroke-linejoin:round;stroke-miterlimit:1.5;">
    <path d="M175.739,386.169C175.739,386.169 134.421,340.265 120.654,340.265L53.687,340.265L53.687,132.885L186,39.996L318.313,132.885L318.313,340.265L241.625,340.265" style="fill:none;stroke:white;stroke-width:32.55px;"/>
    <g transform="matrix(1,0,0,1,3.78013,33.7532)">
        <g transform="matrix(148.431,0,0,148.431,75.3493,240.136)">
            <path d="M0.178,0.006C0.215,0.006 0.25,-0.004 0.283,-0.024C0.316,-0.043 0.347,-0.069 0.377,-0.101C0.406,-0.132 0.432,-0.168 0.456,-0.208C0.479,-0.248 0.499,-0.288 0.516,-0.329C0.533,-0.369 0.546,-0.407 0.555,-0.445C0.564,-0.482 0.569,-0.513 0.569,-0.539C0.569,-0.56 0.564,-0.577 0.554,-0.592C0.544,-0.606 0.531,-0.618 0.516,-0.627C0.5,-0.636 0.482,-0.643 0.463,-0.648C0.444,-0.652 0.425,-0.654 0.406,-0.654C0.393,-0.654 0.379,-0.653 0.365,-0.652C0.35,-0.65 0.336,-0.647 0.322,-0.644C0.33,-0.641 0.339,-0.637 0.349,-0.632C0.359,-0.627 0.368,-0.622 0.377,-0.615C0.385,-0.608 0.392,-0.601 0.398,-0.594C0.403,-0.586 0.406,-0.579 0.406,-0.572C0.406,-0.567 0.4,-0.553 0.389,-0.532C0.378,-0.511 0.364,-0.484 0.347,-0.452C0.33,-0.42 0.312,-0.384 0.292,-0.344C0.272,-0.305 0.254,-0.265 0.237,-0.224C0.22,-0.183 0.206,-0.142 0.195,-0.102C0.184,-0.062 0.178,-0.026 0.178,0.006ZM0.445,-0.747C0.471,-0.747 0.498,-0.743 0.525,-0.736C0.552,-0.729 0.576,-0.718 0.598,-0.704C0.62,-0.689 0.638,-0.671 0.652,-0.649C0.666,-0.627 0.673,-0.602 0.673,-0.573C0.673,-0.539 0.668,-0.5 0.658,-0.455C0.648,-0.41 0.634,-0.365 0.616,-0.318C0.598,-0.271 0.577,-0.225 0.552,-0.18C0.527,-0.135 0.499,-0.094 0.469,-0.059C0.439,-0.023 0.407,0.006 0.373,0.027C0.338,0.049 0.303,0.06 0.267,0.06C0.251,0.06 0.23,0.058 0.205,0.054C0.18,0.051 0.155,0.047 0.131,0.042C0.107,0.037 0.086,0.033 0.07,0.028C0.053,0.023 0.044,0.02 0.044,0.018C0.044,0.015 0.044,0.012 0.045,0.011L0.047,0.007C0.059,0.007 0.071,0.008 0.084,0.011C0.096,0.014 0.109,0.015 0.122,0.015C0.13,0.015 0.138,0.014 0.146,0.012C0.138,0.003 0.13,-0.009 0.121,-0.024C0.112,-0.039 0.108,-0.058 0.108,-0.081C0.108,-0.098 0.111,-0.12 0.116,-0.146C0.121,-0.172 0.129,-0.2 0.138,-0.231C0.147,-0.262 0.158,-0.293 0.17,-0.326C0.181,-0.359 0.194,-0.391 0.206,-0.422C0.22,-0.453 0.232,-0.483 0.245,-0.509C0.258,-0.537 0.269,-0.56 0.28,-0.579C0.281,-0.586 0.281,-0.594 0.282,-0.601C0.283,-0.607 0.283,-0.613 0.284,-0.62C0.285,-0.626 0.287,-0.631 0.29,-0.636C0.27,-0.63 0.248,-0.623 0.223,-0.615C0.198,-0.607 0.175,-0.598 0.154,-0.587C0.132,-0.576 0.114,-0.565 0.099,-0.553C0.084,-0.54 0.077,-0.527 0.077,-0.512C0.077,-0.504 0.078,-0.497 0.081,-0.492C0.083,-0.486 0.085,-0.481 0.087,-0.477C0.09,-0.474 0.092,-0.471 0.095,-0.469C0.097,-0.466 0.098,-0.464 0.098,-0.463C0.097,-0.463 0.096,-0.461 0.094,-0.456C0.091,-0.451 0.087,-0.448 0.082,-0.448C0.077,-0.448 0.07,-0.452 0.061,-0.459C0.052,-0.466 0.043,-0.476 0.034,-0.488C0.025,-0.499 0.017,-0.512 0.01,-0.527C0.003,-0.541 0,-0.555 0,-0.57C0,-0.589 0.008,-0.606 0.024,-0.623C0.039,-0.639 0.06,-0.654 0.085,-0.667C0.11,-0.68 0.139,-0.691 0.172,-0.701C0.204,-0.711 0.236,-0.72 0.27,-0.727C0.303,-0.734 0.334,-0.739 0.365,-0.742C0.396,-0.745 0.422,-0.747 0.445,-0.747Z" style="fill:white;fill-rule:nonzero;"/>
        </g>
        <g transform="matrix(148.431,0,0,148.431,166.635,240.136)">
            <path d="M0.698,-0.656C0.698,-0.659 0.699,-0.664 0.7,-0.671C0.701,-0.678 0.702,-0.686 0.704,-0.694C0.706,-0.702 0.709,-0.709 0.713,-0.715C0.716,-0.721 0.721,-0.724 0.726,-0.724C0.733,-0.724 0.742,-0.722 0.753,-0.717C0.764,-0.712 0.775,-0.705 0.786,-0.697C0.797,-0.689 0.806,-0.68 0.814,-0.671C0.821,-0.662 0.825,-0.653 0.825,-0.645C0.825,-0.64 0.819,-0.626 0.807,-0.606C0.794,-0.585 0.778,-0.558 0.758,-0.525C0.739,-0.492 0.717,-0.454 0.692,-0.411C0.667,-0.368 0.643,-0.323 0.619,-0.275C0.62,-0.273 0.623,-0.266 0.626,-0.255C0.629,-0.244 0.631,-0.234 0.631,-0.226C0.631,-0.22 0.63,-0.216 0.627,-0.214C0.624,-0.212 0.622,-0.211 0.619,-0.211C0.616,-0.211 0.612,-0.213 0.608,-0.216C0.603,-0.219 0.598,-0.222 0.593,-0.225C0.573,-0.186 0.556,-0.149 0.543,-0.113C0.529,-0.077 0.518,-0.043 0.509,-0.013C0.501,0.018 0.495,0.046 0.492,0.071C0.488,0.096 0.486,0.116 0.486,0.131C0.486,0.136 0.487,0.143 0.488,0.151C0.489,0.16 0.491,0.167 0.496,0.172C0.496,0.175 0.496,0.177 0.495,0.179C0.494,0.184 0.491,0.186 0.486,0.186C0.486,0.186 0.48,0.184 0.468,0.179C0.456,0.174 0.443,0.167 0.428,0.157C0.412,0.147 0.399,0.134 0.387,0.118C0.374,0.102 0.368,0.083 0.368,0.061C0.368,0.049 0.371,0.032 0.378,0.009C0.385,-0.013 0.394,-0.039 0.405,-0.068C0.416,-0.097 0.429,-0.128 0.444,-0.162C0.459,-0.195 0.475,-0.23 0.492,-0.265C0.471,-0.272 0.449,-0.277 0.426,-0.282C0.402,-0.287 0.377,-0.29 0.352,-0.292C0.334,-0.257 0.318,-0.225 0.305,-0.196C0.292,-0.167 0.28,-0.139 0.271,-0.114C0.262,-0.088 0.255,-0.064 0.25,-0.041C0.245,-0.018 0.243,0.005 0.243,0.027C0.242,0.03 0.242,0.032 0.241,0.034C0.24,0.038 0.237,0.04 0.233,0.04C0.222,0.04 0.212,0.036 0.202,0.029C0.192,0.022 0.183,0.012 0.175,0.001C0.167,-0.01 0.161,-0.021 0.156,-0.034C0.151,-0.047 0.149,-0.058 0.149,-0.068C0.149,-0.087 0.157,-0.117 0.172,-0.156C0.187,-0.195 0.206,-0.238 0.231,-0.286C0.205,-0.281 0.18,-0.272 0.156,-0.261C0.131,-0.25 0.109,-0.234 0.09,-0.215C0.089,-0.214 0.088,-0.213 0.087,-0.211C0.085,-0.208 0.084,-0.204 0.084,-0.201C0.084,-0.2 0.084,-0.198 0.083,-0.196C0.082,-0.193 0.081,-0.192 0.079,-0.192C0.078,-0.192 0.076,-0.194 0.075,-0.197C0.074,-0.2 0.073,-0.207 0.073,-0.216C0.073,-0.243 0.076,-0.267 0.082,-0.289C0.087,-0.311 0.096,-0.33 0.109,-0.344C0.121,-0.36 0.137,-0.371 0.157,-0.38C0.176,-0.388 0.2,-0.392 0.229,-0.392C0.247,-0.392 0.266,-0.391 0.286,-0.389C0.315,-0.441 0.343,-0.49 0.371,-0.536C0.399,-0.581 0.422,-0.618 0.44,-0.646C0.375,-0.637 0.326,-0.623 0.292,-0.604C0.258,-0.585 0.241,-0.567 0.241,-0.548C0.241,-0.54 0.242,-0.534 0.244,-0.529C0.246,-0.524 0.248,-0.519 0.251,-0.516C0.254,-0.513 0.256,-0.51 0.258,-0.508C0.26,-0.506 0.261,-0.504 0.261,-0.502C0.261,-0.503 0.26,-0.5 0.258,-0.495C0.256,-0.49 0.252,-0.487 0.246,-0.487C0.241,-0.487 0.234,-0.491 0.225,-0.498C0.216,-0.505 0.206,-0.515 0.197,-0.527C0.188,-0.538 0.18,-0.551 0.172,-0.566C0.166,-0.581 0.162,-0.595 0.162,-0.61C0.162,-0.636 0.174,-0.658 0.197,-0.676C0.22,-0.694 0.249,-0.709 0.283,-0.72C0.317,-0.731 0.353,-0.739 0.391,-0.744C0.429,-0.749 0.462,-0.751 0.491,-0.751C0.507,-0.751 0.52,-0.747 0.531,-0.738C0.541,-0.729 0.549,-0.719 0.556,-0.708C0.563,-0.696 0.567,-0.684 0.57,-0.673C0.573,-0.662 0.574,-0.653 0.574,-0.647C0.574,-0.64 0.569,-0.628 0.559,-0.613C0.548,-0.597 0.535,-0.577 0.519,-0.554C0.502,-0.53 0.484,-0.502 0.463,-0.471C0.442,-0.441 0.42,-0.406 0.398,-0.368C0.419,-0.363 0.439,-0.357 0.46,-0.349C0.481,-0.343 0.501,-0.335 0.521,-0.326C0.538,-0.361 0.556,-0.395 0.574,-0.429C0.591,-0.463 0.608,-0.495 0.623,-0.524C0.638,-0.553 0.653,-0.579 0.666,-0.602C0.679,-0.625 0.689,-0.643 0.698,-0.656Z" style="fill:white;fill-rule:nonzero;"/>
        </g>
    </g>
</svg>
